<?xml version="1.0" encoding="utf-8"?>
<!DOCTYPE svg PUBLIC "-//W3C//DTD SVG 1.1//EN" "http://www.w3.org/Graphics/SVG/1.1/DTD/svg11.dtd">
<svg xmlns="http://www.w3.org/2000/svg" xmlns:xlink="http://www.w3.org/1999/xlink" width="500" height="130" id="svg2" version="1.1">
    <defs id="defs4">
        <linearGradient id="linearGradient6373">
            <stop id="stop6367" offset="0" style="stop-color:#0054d3;stop-opacity:1"/>
            <stop id="stop6371" offset="1" style="stop-color:#0095ee;stop-opacity:1"/>
        </linearGradient>
        <linearGradient id="linearGradient6968">
            <stop style="stop-color:#666666;stop-opacity:1" offset="0" id="stop6964"/>
            <stop style="stop-color:#ffffff;stop-opacity:0" offset="1" id="stop6966"/>
        </linearGradient>
        <linearGradient id="linearGradient6785">
            <stop id="stop6781" offset="0" style="stop-color:#ffffff;stop-opacity:1"/>
            <stop id="stop6783" offset="1" style="stop-color:#e4f4f3;stop-opacity:0"/>
        </linearGradient>
        <linearGradient id="linearGradient5341">
            <stop style="stop-color:#803300;stop-opacity:1;" offset="0" id="stop5337"/>
            <stop style="stop-color:#333333;stop-opacity:1" offset="1" id="stop5339"/>
        </linearGradient>

        <linearGradient id="linearGradient5976">
            <stop id="stop5972" offset="0" style="stop-color:#003380;stop-opacity:1"/>
            <stop id="stop5974" offset="1" style="stop-color:#0055d4;stop-opacity:1"/>
        </linearGradient>
        <linearGradient id="linearGradient5408">
            <stop style="stop-color:#002255;stop-opacity:1" offset="0" id="stop5404"/>
            <stop style="stop-color:#003380;stop-opacity:1" offset="1" id="stop5406"/>
        </linearGradient>
        <linearGradient id="linearGradient5150">
            <stop style="stop-color:#2a7fff;stop-opacity:1" offset="0" id="stop5146"/>
            <stop style="stop-color:#00ccff;stop-opacity:1" offset="1" id="stop5148"/>
        </linearGradient>


        <linearGradient gradientTransform="translate(-93.429688,-1253.0293)" xlink:href="#linearGradient5408" id="linearGradient5410-3" x1="120.91526" y1="1302.6658" x2="120.91526" y2="1254.936" gradientUnits="userSpaceOnUse"/>
        <linearGradient xlink:href="#linearGradient5150" id="linearGradient5369-3" gradientUnits="userSpaceOnUse" gradientTransform="matrix(1,0,0.19439893,1,160.52633,-664.87254)" x1="-298.99591" y1="765.51965" x2="-281.5" y2="675.51965"/>
        <linearGradient xlink:href="#linearGradient5408" id="linearGradient5435-9" gradientUnits="userSpaceOnUse" x1="19.67539" y1="1300.7494" x2="19.67539" y2="1221.4795" gradientTransform="matrix(1.005998,0,0,1.0020868,1.87249,-1195.6452)"/>
        <linearGradient xlink:href="#linearGradient5976" id="linearGradient5980-1" gradientUnits="userSpaceOnUse" gradientTransform="matrix(1.771681,0,0,0.50740366,3.2977,-605.4114)" x1="19.67539" y1="1300.7494" x2="19.67539" y2="1195.8589"/>
        <linearGradient xlink:href="#linearGradient5150" id="linearGradient8004-2" gradientUnits="userSpaceOnUse" gradientTransform="matrix(1.1942735,0,0.23216549,1.1942735,191.7115,-794.03995)" x1="-296.9241" y1="754.86218" x2="-281.5" y2="675.51965"/>
        <linearGradient xlink:href="#linearGradient5976" id="linearGradient5435-93" gradientUnits="userSpaceOnUse" x1="39.527206" y1="1312.9054" x2="64.001701" y2="1193.1554" gradientTransform="matrix(1.3866244,0,0,1.2005142,2.581,-1432.4)"/>

        <linearGradient xlink:href="#linearGradient5976" id="linearGradient8182" gradientUnits="userSpaceOnUse" gradientTransform="matrix(1.1255069,0,0,0.9744434,-2279.9823,125.85908)" x1="39.527206" y1="1312.9054" x2="64.001701" y2="1193.1554"/>
        <linearGradient xlink:href="#linearGradient5976" id="linearGradient5126-3" gradientUnits="userSpaceOnUse" gradientTransform="matrix(1.1255069,0,0,0.9744434,181.60528,-1253.4137)" x1="-86.752304" y1="1458.7615" x2="-86.752304" y2="1300.5519"/>
        <linearGradient xlink:href="#linearGradient5976" id="linearGradient5267-3" gradientUnits="userSpaceOnUse" gradientTransform="matrix(0.57533114,0,0,0.77493989,52.6114,-1003.5873)" x1="-86.752304" y1="1419.0692" x2="-86.752304" y2="1300.5519"/>
        <linearGradient xlink:href="#linearGradient5976" id="linearGradient5267-2" gradientUnits="userSpaceOnUse" gradientTransform="matrix(0.57533114,0,0,0.77493989,88.5806,-1003.5873)" x1="-86.752304" y1="1419.0692" x2="-86.752304" y2="1300.5519"/>
        <linearGradient xlink:href="#linearGradient5341" id="linearGradient5343-5" x1="-3043.25" y1="977.01965" x2="-3043.25" y2="853.56989" gradientUnits="userSpaceOnUse" gradientTransform="matrix(0.68663632,0,0,0.68663632,2147.561,-571.22951)"/>


        <linearGradient xlink:href="#linearGradient6785" id="linearGradient6188-3" x1="-6662.1279" y1="1846.5839" x2="-6649.939" y2="1892.0735" gradientUnits="userSpaceOnUse" gradientTransform="matrix(3.0428746,0,0,3.0428746,20289.966,-5608.4342)"/>
        <linearGradient xlink:href="#linearGradient6968" id="linearGradient6870-3" gradientUnits="userSpaceOnUse" gradientTransform="matrix(1.5608716,0,0,1.5608716,10407.931,-2876.8998)" x1="-6616.3979" y1="1978.3063" x2="-6616.3979" y2="1858.0981"/>
        <linearGradient xlink:href="#linearGradient6373" id="linearGradient6365" gradientUnits="userSpaceOnUse" x1="-4389.0117" y1="6023.4771" x2="-4269.5107" y2="5915.2896" gradientTransform="translate(-1.2617188e-4,516.00017)"/>
    </defs>

    <g id="layer1" transform="translate(0,-682.51965)">

        <text xml:space="preserve" style="font-style:normal;font-weight:normal;font-size:40px;line-height:1.25;font-family:sans-serif;letter-spacing:0px;word-spacing:0px;fill:#999999;fill-opacity:1;stroke:none" x="-6292.3853" y="5475.4023" id="text7208"><tspan x="-6292.3853" y="5510.793" style="font-style:normal;font-variant:normal;font-weight:normal;font-stretch:normal;font-size:24px;line-height:20px;font-family:'Open Sans';-inkscape-font-specification:'Open Sans';fill:#999999" id="tspan6070"/></text>
    <text xml:space="preserve" style="font-style:normal;font-variant:normal;font-weight:normal;font-stretch:normal;font-size:12.80000019px;line-height:0%;font-family:Dosis;-inkscape-font-specification:Dosis;letter-spacing:0px;word-spacing:0px;fill:#808080;fill-opacity:1;stroke:none;stroke-width:1.06666672" x="123.04644" y="168.36581" id="text4595"><tspan style="font-size:14.66666698px;line-height:1.25;stroke-width:1.06666672" x="123.04644" y="172.36581" id="tspan5115"/></text>
    <text id="text4607" y="212.36581" x="123.04644" style="font-style:normal;font-variant:normal;font-weight:normal;font-stretch:normal;font-size:12.80000019px;line-height:0%;font-family:Dosis;-inkscape-font-specification:Dosis;letter-spacing:0px;word-spacing:0px;fill:#808080;fill-opacity:1;stroke:none;stroke-width:1.06666672" xml:space="preserve"><tspan y="216.36581" x="123.04644" id="tspan4605" style="font-size:14.66666698px;line-height:1.25;stroke-width:1.06666672"/></text>
        <g id="g121472" transform="translate(-1948.0002,2324.967)"/>
        <text xml:space="preserve" style="font-style:normal;font-weight:normal;font-size:40px;line-height:1.25;font-family:sans-serif;letter-spacing:0px;word-spacing:0px;fill:#000000;fill-opacity:1;stroke:none" x="-5888" y="7006.5195" id="text6579"><tspan id="tspan6577" x="-5888" y="7041.9102"/></text>
    <text xml:space="preserve" style="font-style:normal;font-weight:normal;font-size:40px;line-height:1.25;font-family:sans-serif;letter-spacing:0px;word-spacing:0px;fill:#000000;fill-opacity:1;stroke:none" x="-5977.8809" y="5854.478" id="text7420"><tspan id="tspan7418" x="-5977.8809" y="5889.8687"/></text>
        <g id="g2594">
            <path id="path2452" transform="translate(0,622.51965)" d="M 141.35547 72.40625 C 140.83642 72.412278 140.33593 72.455149 139.83789 72.5 C 118.99264 72.500049 103.84135 72.49988 82.980469 72.5 L 77.363281 72.5 L 77.246094 72.5 C 61.717939 72.172607 49.232253 86.191372 50.037109 101.32617 L 50.029297 101.08984 C 50.048557 123.28487 49.992577 145.49525 50.060547 167.7168 L 50.066406 167.96484 C 50.290093 171.83791 53.021809 175.05467 55.835938 176.3457 C 58.500376 177.56811 61.156815 177.71583 63.552734 177.5 C 84.796734 177.4804 106.05692 177.53947 127.33008 177.46875 L 127.44531 177.46875 C 142.53926 177.03188 154.12318 163.23681 153.35938 148.57422 C 153.34018 126.491 153.39939 104.39279 153.33203 82.283203 L 153.32422 82.035156 C 153.1011 78.162086 150.37076 74.94744 147.55664 73.65625 C 145.44609 72.687903 143.33348 72.383278 141.35547 72.40625 z M 141.36523 76.951172 C 144.81651 76.940719 148.56528 78.242851 148.79883 82.296875 C 148.86623 104.40305 148.80883 126.51179 148.82812 148.61914 C 149.56586 160.7316 139.66158 172.58405 127.31445 172.94141 C 106.03575 173.01221 84.753981 172.9509 63.474609 172.9707 C 59.716057 173.37774 54.859383 172.33825 54.591797 167.70508 C 54.523817 145.50069 54.58176 123.29346 54.5625 101.08789 C 53.901068 88.650061 64.575438 76.70504 77.248047 77.03125 L 82.980469 77.03125 C 103.86996 77.03114 119.02641 77.03131 139.91602 77.03125 C 140.38581 76.980362 140.8722 76.952665 141.36523 76.951172 z " style="color:#000000;font-style:normal;font-variant:normal;font-weight:normal;font-stretch:normal;font-size:medium;line-height:normal;font-family:sans-serif;font-variant-ligatures:normal;font-variant-position:normal;font-variant-caps:normal;font-variant-numeric:normal;font-variant-alternates:normal;font-feature-settings:normal;text-indent:0;text-align:start;text-decoration:none;text-decoration-line:none;text-decoration-style:solid;text-decoration-color:#000000;letter-spacing:normal;word-spacing:normal;text-transform:none;writing-mode:lr-tb;direction:ltr;text-orientation:mixed;dominant-baseline:auto;baseline-shift:baseline;text-anchor:start;white-space:normal;shape-padding:0;clip-rule:nonzero;display:inline;overflow:visible;visibility:visible;opacity:1;isolation:auto;mix-blend-mode:normal;color-interpolation:sRGB;color-interpolation-filters:linearRGB;solid-color:#000000;solid-opacity:1;vector-effect:none;fill:#3583f6;fill-opacity:1;fill-rule:nonzero;stroke:none;stroke-width:16;stroke-linecap:round;stroke-linejoin:bevel;stroke-miterlimit:4;stroke-dasharray:none;stroke-dashoffset:0;stroke-opacity:1;paint-order:stroke markers fill;color-rendering:auto;image-rendering:auto;shape-rendering:auto;text-rendering:auto;enable-background:accumulate"/>
            <path id="path2456" d="m 99.881109,713.26364 -14.611701,4.83098 c -1.443627,0.57606 -2.433933,1.86301 -2.433933,3.65725 v 21.70524 l -6.172377,1.71246 c -0.811424,0.22442 -2.498337,1.34285 -2.498337,3.61953 v 5.6382 l 31.651159,-8.77054 c 1.29533,-0.35329 2.61706,-1.74134 2.61706,-3.5374 l 0.009,-5.76474 -8.557259,2.37399 z m 0.0085,35.48009 -14.9037,6.48989 c -1.298222,0.58292 -2.094069,1.92645 -2.146578,3.25412 v 19.60541 c 0,2.1443 1.839285,3.68507 3.48819,3.68507 h 37.135419 l 2.09583,-0.0147 v -2.12482 l 0.0244,-7.43284 c 0,-2.25912 -1.77794,-3.81518 -3.68588,-3.81518 H 99.892098 Z" style="color:#000000;display:inline;overflow:visible;visibility:visible;fill:#3583f6;fill-opacity:1;fill-rule:nonzero;stroke:none;stroke-width:1.18576038;marker:none;enable-background:accumulate"/>
            <g aria-label="Litecoin" transform="matrix(0.55180905,0,0,0.58145512,3661.7761,-1953.8735)" style="font-style:normal;font-variant:normal;font-weight:normal;font-stretch:normal;font-size:91.95410919px;line-height:1.25;font-family:'Varela Round';-inkscape-font-specification:'Varela Round';letter-spacing:0px;word-spacing:0px;opacity:1;vector-effect:none;fill:#3583f6;fill-opacity:1;stroke:none;stroke-width:2.09336233;stroke-linecap:butt;stroke-linejoin:miter;stroke-miterlimit:4;stroke-dasharray:none;stroke-dashoffset:0;stroke-opacity:1;marker:none" id="g2474">
                <path d="m -6267.8697,4621.1585 h -30.069 v -52.046 c 0,-2.2988 -1.931,-4.2299 -4.2299,-4.2299 -2.2988,0 -4.1379,1.9311 -4.1379,4.2299 v 54.6208 c 0,3.2184 2.5747,5.7931 5.7931,5.7931 h 32.6437 c 2.2988,0 4.2299,-1.8391 4.2299,-4.138 0,-2.2988 -1.9311,-4.2299 -4.2299,-4.2299 z" style="font-style:normal;font-variant:normal;font-weight:normal;font-stretch:normal;font-size:91.95410919px;font-family:'Varela Round';-inkscape-font-specification:'Varela Round';letter-spacing:0px;vector-effect:none;fill:#3583f6;fill-opacity:1;stroke:none;stroke-width:2.09336233;stroke-linecap:butt;stroke-linejoin:miter;stroke-miterlimit:4;stroke-dasharray:none;stroke-dashoffset:0;stroke-opacity:1;marker:none" id="path2458"/>
                <path d="m -6250.4746,4582.17 c -2.2988,0 -4.1379,1.8391 -4.1379,4.2299 v 39.4483 c 0,2.2989 1.8391,4.1379 4.1379,4.1379 2.3908,0 4.2299,-1.839 4.2299,-4.1379 v -39.4483 c 0,-2.3908 -1.8391,-4.2299 -4.2299,-4.2299 z m 5.0575,-14.1609 c 0,-2.5747 -2.1149,-4.6897 -4.6897,-4.6897 -0.1839,0 -0.3678,0 -0.5517,0 -2.5747,0 -4.6896,2.115 -4.6896,4.6897 0,0.2758 0,0.2758 0,0.3678 0,2.5747 2.1149,4.6896 4.6896,4.6896 0.3678,0 0.4598,0 0.5517,0 2.5748,0 4.6897,-2.1149 4.6897,-4.6896 0,-0.092 0,-0.2759 0,-0.3678 z" style="font-style:normal;font-variant:normal;font-weight:normal;font-stretch:normal;font-size:91.95410919px;font-family:'Varela Round';-inkscape-font-specification:'Varela Round';letter-spacing:0px;vector-effect:none;fill:#3583f6;fill-opacity:1;stroke:none;stroke-width:2.09336233;stroke-linecap:butt;stroke-linejoin:miter;stroke-miterlimit:4;stroke-dasharray:none;stroke-dashoffset:0;stroke-opacity:1;marker:none" id="path2460"/>
                <path d="m -6208.3768,4622.262 c -1.5633,0 -2.5747,0.8276 -5.5173,0.8276 -2.2988,0 -5.977,-0.092 -5.977,-5.5173 v -27.7701 h 10.3908 c 2.023,0 3.5862,-1.5632 3.5862,-3.5862 0,-2.023 -1.5632,-3.5862 -3.5862,-3.5862 h -10.3908 v -7.3564 c 0,-1.0115 -0.7356,-1.839 -1.7471,-1.839 -0.7357,0 -1.2874,0.5517 -1.5632,0.8275 l -12.5058,12.2299 c -0.5517,0.4598 -0.8276,1.0115 -0.8276,1.5633 0,1.0115 0.7356,1.7471 1.7471,1.7471 h 6.5288 v 28.5058 c 0,11.4023 9.1034,12.1379 13.4253,12.1379 2.9425,0 5.4253,-0.6437 7.6322,-1.6552 1.2873,-0.6436 2.1149,-1.6551 2.1149,-3.2184 0,-1.931 -1.6552,-3.3103 -3.3103,-3.3103 z" style="font-style:normal;font-variant:normal;font-weight:normal;font-stretch:normal;font-size:91.95410919px;font-family:'Varela Round';-inkscape-font-specification:'Varela Round';letter-spacing:0px;vector-effect:none;fill:#3583f6;fill-opacity:1;stroke:none;stroke-width:2.09336233;stroke-linecap:butt;stroke-linejoin:miter;stroke-miterlimit:4;stroke-dasharray:none;stroke-dashoffset:0;stroke-opacity:1;marker:none" id="path2462"/>
                <path d="m -6160.0305,4619.4114 c -0.6437,0 -1.1035,0.092 -1.6552,0.3678 -3.4023,1.7472 -6.8966,2.8506 -12.4138,2.8506 -9.9311,0 -15.1724,-5.3333 -16.092,-13.6092 h 31.1725 c 2.5747,0 4.2299,-1.8391 4.2299,-4.1379 0,-12.2299 -7.7242,-23.1725 -21.8851,-23.1725 -15.2644,0 -21.9771,11.9541 -21.9771,24.3679 0,15.4483 8.8276,24.3678 23.8162,24.3678 8,0 12.0459,-1.7471 16.0919,-4.046 1.2874,-0.7356 2.3908,-1.931 2.3908,-3.4023 0,-2.1149 -1.7471,-3.5862 -3.6781,-3.5862 z m -16.6437,-30.6207 c 5.885,0 13.0575,3.8621 13.6092,13.4253 h -27.1265 c 0.5517,-9.5632 7.6322,-13.4253 13.5173,-13.4253 z" style="font-style:normal;font-variant:normal;font-weight:normal;font-stretch:normal;font-size:91.95410919px;font-family:'Varela Round';-inkscape-font-specification:'Varela Round';letter-spacing:0px;vector-effect:none;fill:#3583f6;fill-opacity:1;stroke:none;stroke-width:2.09336233;stroke-linecap:butt;stroke-linejoin:miter;stroke-miterlimit:4;stroke-dasharray:none;stroke-dashoffset:0;stroke-opacity:1;marker:none" id="path2464"/>
                <path d="m -6108.5994,4619.1356 c -0.7357,0 -1.1955,0.092 -2.023,0.5517 -3.2184,1.6552 -5.7931,2.9425 -10.5748,2.9425 -10.6666,0 -16.9195,-6.7126 -16.9195,-16.5517 0,-9.8391 6.2529,-16.5518 16.9195,-16.5518 4.7817,0 7.3564,1.2874 10.5748,2.9426 0.8275,0.4597 1.2873,0.5517 2.023,0.5517 1.931,0 3.4942,-1.9311 3.4942,-3.6782 0,-1.3793 -0.7356,-2.4827 -1.8391,-3.2184 -3.1264,-2.023 -7.7241,-4.4138 -14.9885,-4.4138 -13.0575,0 -24.5517,9.0115 -24.5517,24.3679 0,15.3563 11.4942,24.3678 24.5517,24.3678 7.2644,0 11.8621,-2.3908 14.9885,-4.4138 1.1035,-0.7356 1.8391,-1.8391 1.8391,-3.2184 0,-1.7471 -1.5632,-3.6781 -3.4942,-3.6781 z" style="font-style:normal;font-variant:normal;font-weight:normal;font-stretch:normal;font-size:91.95410919px;font-family:'Varela Round';-inkscape-font-specification:'Varela Round';letter-spacing:0px;vector-effect:none;fill:#3583f6;fill-opacity:1;stroke:none;stroke-width:2.09336233;stroke-linecap:butt;stroke-linejoin:miter;stroke-miterlimit:4;stroke-dasharray:none;stroke-dashoffset:0;stroke-opacity:1;marker:none" id="path2466"/>
                <path d="m -6073.9098,4581.7102 c -14.2528,0 -23.5402,9.8391 -23.5402,24.3679 0,14.5287 9.2874,24.3678 23.5402,24.3678 14.161,0 23.5403,-9.8391 23.5403,-24.3678 0,-14.5288 -9.3793,-24.3679 -23.5403,-24.3679 z m 0,41.1035 c -7.0804,0 -15.1724,-4.5977 -15.1724,-16.8276 0,-12.1379 8.092,-16.6437 15.1724,-16.6437 6.9886,0 15.1725,4.5058 15.1725,16.6437 0,12.2299 -8.1839,16.8276 -15.1725,16.8276 z" style="font-style:normal;font-variant:normal;font-weight:normal;font-stretch:normal;font-size:91.95410919px;font-family:'Varela Round';-inkscape-font-specification:'Varela Round';letter-spacing:0px;vector-effect:none;fill:#3583f6;fill-opacity:1;stroke:none;stroke-width:2.09336233;stroke-linecap:butt;stroke-linejoin:miter;stroke-miterlimit:4;stroke-dasharray:none;stroke-dashoffset:0;stroke-opacity:1;marker:none" id="path2468"/>
                <path d="m -6034.2388,4582.17 c -2.2988,0 -4.1379,1.8391 -4.1379,4.2299 v 39.4483 c 0,2.2989 1.8391,4.1379 4.1379,4.1379 2.3909,0 4.2299,-1.839 4.2299,-4.1379 v -39.4483 c 0,-2.3908 -1.839,-4.2299 -4.2299,-4.2299 z m 5.0575,-14.1609 c 0,-2.5747 -2.1149,-4.6897 -4.6896,-4.6897 -0.1839,0 -0.3679,0 -0.5518,0 -2.5747,0 -4.6896,2.115 -4.6896,4.6897 0,0.2758 0,0.2758 0,0.3678 0,2.5747 2.1149,4.6896 4.6896,4.6896 0.3679,0 0.4598,0 0.5518,0 2.5747,0 4.6896,-2.1149 4.6896,-4.6896 0,-0.092 0,-0.2759 0,-0.3678 z" style="font-style:normal;font-variant:normal;font-weight:normal;font-stretch:normal;font-size:91.95410919px;font-family:'Varela Round';-inkscape-font-specification:'Varela Round';letter-spacing:0px;vector-effect:none;fill:#3583f6;fill-opacity:1;stroke:none;stroke-width:2.09336233;stroke-linecap:butt;stroke-linejoin:miter;stroke-miterlimit:4;stroke-dasharray:none;stroke-dashoffset:0;stroke-opacity:1;marker:none" id="path2470"/>
                <path d="m -5989.5663,4581.7102 c -8.1839,0 -13.2414,4.2299 -17.1034,8.4598 v -3.7701 c 0,-2.3908 -1.9311,-4.2299 -4.2299,-4.2299 -2.2989,0 -4.138,1.8391 -4.138,4.2299 v 39.4483 c 0,2.2989 1.8391,4.1379 4.138,4.1379 2.2988,0 4.2299,-1.839 4.2299,-4.1379 v -27.5862 c 3.6781,-4.5977 8.4597,-8.8276 15.0804,-8.8276 7.1725,0 10.115,4.2299 10.115,11.2184 v 25.1954 c 0,2.2989 1.8391,4.1379 4.1379,4.1379 2.2989,0 4.2299,-1.839 4.2299,-4.1379 v -26.115 c 0,-9.8391 -5.977,-18.023 -16.4598,-18.023 z" style="font-style:normal;font-variant:normal;font-weight:normal;font-stretch:normal;font-size:91.95410919px;font-family:'Varela Round';-inkscape-font-specification:'Varela Round';letter-spacing:0px;vector-effect:none;fill:#3583f6;fill-opacity:1;stroke:none;stroke-width:2.09336233;stroke-linecap:butt;stroke-linejoin:miter;stroke-miterlimit:4;stroke-dasharray:none;stroke-dashoffset:0;stroke-opacity:1;marker:none" id="path2472"/>
            </g>
            <g aria-label="Foundation" transform="matrix(0.55180905,0,0,0.58145512,3661.7761,-1953.8735)" style="font-style:normal;font-variant:normal;font-weight:normal;font-stretch:normal;font-size:91.95410919px;line-height:1.25;font-family:'Varela Round';-inkscape-font-specification:'Varela Round';letter-spacing:0px;word-spacing:0px;opacity:1;vector-effect:none;fill:#3583f6;fill-opacity:1;stroke:none;stroke-width:2.09336233;stroke-linecap:butt;stroke-linejoin:miter;stroke-miterlimit:4;stroke-dasharray:none;stroke-dashoffset:0;stroke-opacity:1;marker:none" id="g2496">
                <path d="m -6266.3984,4670.8265 c 2.2069,0 3.954,-1.6552 3.954,-3.8621 0,-2.2069 -1.7471,-3.954 -3.954,-3.954 h -35.7702 c -2.2988,0 -4.1379,1.931 -4.1379,4.2299 v 56.2759 c 0,2.2988 1.8391,4.1379 4.1379,4.1379 2.2989,0 4.2299,-1.8391 4.2299,-4.1379 v -24.5518 h 28.3219 c 2.2069,0 3.954,-1.6551 3.954,-3.862 0,-2.2069 -1.7471,-3.9541 -3.954,-3.9541 h -28.3219 v -20.3218 z" style="font-style:normal;font-variant:normal;font-weight:normal;font-stretch:normal;font-size:91.95410919px;font-family:'Varela Round';-inkscape-font-specification:'Varela Round';letter-spacing:0px;vector-effect:none;fill:#3583f6;fill-opacity:1;stroke:none;stroke-width:2.09336233;stroke-linecap:butt;stroke-linejoin:miter;stroke-miterlimit:4;stroke-dasharray:none;stroke-dashoffset:0;stroke-opacity:1;marker:none" id="path2476"/>
                <path d="m -6233.0335,4679.3782 c -14.2529,0 -23.5402,9.8391 -23.5402,24.3678 0,14.5288 9.2873,24.3679 23.5402,24.3679 14.161,0 23.5403,-9.8391 23.5403,-24.3679 0,-14.5287 -9.3793,-24.3678 -23.5403,-24.3678 z m 0,41.1035 c -7.0804,0 -15.1724,-4.5977 -15.1724,-16.8276 0,-12.138 8.092,-16.6437 15.1724,-16.6437 6.9885,0 15.1725,4.5057 15.1725,16.6437 0,12.2299 -8.184,16.8276 -15.1725,16.8276 z" style="font-style:normal;font-variant:normal;font-weight:normal;font-stretch:normal;font-size:91.95410919px;font-family:'Varela Round';-inkscape-font-specification:'Varela Round';letter-spacing:0px;vector-effect:none;fill:#3583f6;fill-opacity:1;stroke:none;stroke-width:2.09336233;stroke-linecap:butt;stroke-linejoin:miter;stroke-miterlimit:4;stroke-dasharray:none;stroke-dashoffset:0;stroke-opacity:1;marker:none" id="path2478"/>
                <path d="m -6181.7762,4728.1139 c 8.1839,0 13.2414,-4.2299 17.1034,-8.4598 v 3.7701 c 0,2.3908 1.9311,4.2299 4.2299,4.2299 2.2989,0 4.1379,-1.8391 4.1379,-4.2299 v -39.4483 c 0,-2.2988 -1.839,-4.1379 -4.1379,-4.1379 -2.2988,0 -4.2299,1.8391 -4.2299,4.1379 v 27.5862 c -3.6781,4.5977 -8.4598,8.8276 -15.0804,8.8276 -7.1725,0 -10.115,-4.2299 -10.115,-11.2184 v -25.1954 c 0,-2.2988 -1.8391,-4.1379 -4.1379,-4.1379 -2.2989,0 -4.2299,1.8391 -4.2299,4.1379 v 26.115 c 0,9.8391 5.977,18.023 16.4598,18.023 z" style="font-style:normal;font-variant:normal;font-weight:normal;font-stretch:normal;font-size:91.95410919px;font-family:'Varela Round';-inkscape-font-specification:'Varela Round';letter-spacing:0px;vector-effect:none;fill:#3583f6;fill-opacity:1;stroke:none;stroke-width:2.09336233;stroke-linecap:butt;stroke-linejoin:miter;stroke-miterlimit:4;stroke-dasharray:none;stroke-dashoffset:0;stroke-opacity:1;marker:none" id="path2480"/>
                <path d="m -6116.3624,4679.3782 c -8.1839,0 -13.2414,4.2299 -17.1035,8.4598 v -3.7701 c 0,-2.3908 -1.931,-4.2299 -4.2298,-4.2299 -2.2989,0 -4.138,1.8391 -4.138,4.2299 v 39.4483 c 0,2.2988 1.8391,4.1379 4.138,4.1379 2.2988,0 4.2298,-1.8391 4.2298,-4.1379 v -27.5863 c 3.6782,-4.5977 8.4598,-8.8276 15.0805,-8.8276 7.1724,0 10.115,4.2299 10.115,11.2184 v 25.1955 c 0,2.2988 1.8391,4.1379 4.1379,4.1379 2.2989,0 4.2299,-1.8391 4.2299,-4.1379 v -26.115 c 0,-9.8391 -5.977,-18.023 -16.4598,-18.023 z" style="font-style:normal;font-variant:normal;font-weight:normal;font-stretch:normal;font-size:91.95410919px;font-family:'Varela Round';-inkscape-font-specification:'Varela Round';letter-spacing:0px;vector-effect:none;fill:#3583f6;fill-opacity:1;stroke:none;stroke-width:2.09336233;stroke-linecap:butt;stroke-linejoin:miter;stroke-miterlimit:4;stroke-dasharray:none;stroke-dashoffset:0;stroke-opacity:1;marker:none" id="path2482"/>
                <path d="m -6066.3968,4679.3782 c -11.1265,0 -22.2529,8.7356 -22.2529,24.3678 0,15.6322 11.1264,24.3679 22.2529,24.3679 6.4368,0 11.4942,-2.5747 15.7241,-6.9885 v 2.3908 c 0,2.2988 1.8391,4.1379 4.2299,4.1379 2.2989,0 4.138,-1.8391 4.138,-4.1379 v -59.6782 c 0,-2.3909 -1.8391,-4.2299 -4.138,-4.2299 -2.3908,0 -4.2299,1.839 -4.2299,4.2299 v 22.5287 c -4.2299,-4.4138 -9.2873,-6.9885 -15.7241,-6.9885 z m 1.1954,40.9196 c -8.7357,0 -15.0805,-5.7012 -15.0805,-16.5518 0,-10.8505 6.3448,-16.5517 15.0805,-16.5517 5.977,0 10.9425,2.9425 14.5287,6.8966 v 19.3103 c -3.5862,3.954 -8.5517,6.8966 -14.5287,6.8966 z" style="font-style:normal;font-variant:normal;font-weight:normal;font-stretch:normal;font-size:91.95410919px;font-family:'Varela Round';-inkscape-font-specification:'Varela Round';letter-spacing:0px;vector-effect:none;fill:#3583f6;fill-opacity:1;stroke:none;stroke-width:2.09336233;stroke-linecap:butt;stroke-linejoin:miter;stroke-miterlimit:4;stroke-dasharray:none;stroke-dashoffset:0;stroke-opacity:1;marker:none" id="path2484"/>
                <path d="m -6010.1338,4679.3782 c -6.5288,0 -11.5863,1.4713 -15.9081,3.3103 -1.5632,0.6437 -2.3908,1.9311 -2.3908,3.4943 0,2.023 1.5632,3.4943 3.4023,3.4943 0.3678,0 0.8276,-0.092 1.1954,-0.1839 3.4023,-1.1035 7.0805,-2.2069 12.2299,-2.2069 8.2759,0 12.3218,3.2183 12.3218,11.4023 v 0.7356 h -11.1264 c -14.3448,0 -21.1494,6.2529 -21.1494,14.8966 0,8.6436 6.9885,13.7931 14.9885,13.7931 8.6437,0 13.977,-3.5862 17.2873,-6.9885 v 2.3908 c 0,2.2988 1.8391,4.1379 4.138,4.1379 2.2988,0 4.2299,-1.8391 4.2299,-4.1379 v -26.023 c 0,-9.0115 -5.7931,-18.115 -19.2184,-18.115 z m -3.3104,41.3793 c -7.4483,0 -9.7471,-3.4023 -9.7471,-7.3563 0,-5.2414 5.2414,-7.2644 13.885,-7.2644 h 10.023 v 7.7242 c -3.1264,3.5862 -8.4597,6.8965 -14.1609,6.8965 z" style="font-style:normal;font-variant:normal;font-weight:normal;font-stretch:normal;font-size:91.95410919px;font-family:'Varela Round';-inkscape-font-specification:'Varela Round';letter-spacing:0px;vector-effect:none;fill:#3583f6;fill-opacity:1;stroke:none;stroke-width:2.09336233;stroke-linecap:butt;stroke-linejoin:miter;stroke-miterlimit:4;stroke-dasharray:none;stroke-dashoffset:0;stroke-opacity:1;marker:none" id="path2486"/>
                <path d="m -5954.4254,4719.93 c -1.5633,0 -2.5748,0.8275 -5.5173,0.8275 -2.2988,0 -5.977,-0.092 -5.977,-5.5172 v -27.7701 h 10.3908 c 2.023,0 3.5862,-1.5633 3.5862,-3.5862 0,-2.023 -1.5632,-3.5863 -3.5862,-3.5863 h -10.3908 v -7.3563 c 0,-1.0115 -0.7356,-1.8391 -1.7471,-1.8391 -0.7357,0 -1.2874,0.5518 -1.5633,0.8276 l -12.5057,12.2299 c -0.5517,0.4598 -0.8276,1.0115 -0.8276,1.5632 0,1.0115 0.7356,1.7472 1.7471,1.7472 h 6.5288 v 28.5057 c 0,11.4023 9.1034,12.138 13.4253,12.138 2.9425,0 5.4253,-0.6437 7.6322,-1.6552 1.2873,-0.6437 2.1149,-1.6552 2.1149,-3.2184 0,-1.931 -1.6552,-3.3103 -3.3103,-3.3103 z" style="font-style:normal;font-variant:normal;font-weight:normal;font-stretch:normal;font-size:91.95410919px;font-family:'Varela Round';-inkscape-font-specification:'Varela Round';letter-spacing:0px;vector-effect:none;fill:#3583f6;fill-opacity:1;stroke:none;stroke-width:2.09336233;stroke-linecap:butt;stroke-linejoin:miter;stroke-miterlimit:4;stroke-dasharray:none;stroke-dashoffset:0;stroke-opacity:1;marker:none" id="path2488"/>
                <path d="m -5937.4355,4679.838 c -2.2989,0 -4.1379,1.8391 -4.1379,4.2299 v 39.4483 c 0,2.2988 1.839,4.1379 4.1379,4.1379 2.3908,0 4.2299,-1.8391 4.2299,-4.1379 v -39.4483 c 0,-2.3908 -1.8391,-4.2299 -4.2299,-4.2299 z m 5.0575,-14.161 c 0,-2.5747 -2.115,-4.6896 -4.6897,-4.6896 -0.1839,0 -0.3678,0 -0.5517,0 -2.5747,0 -4.6897,2.1149 -4.6897,4.6896 0,0.2759 0,0.2759 0,0.3679 0,2.5747 2.115,4.6896 4.6897,4.6896 0.3678,0 0.4598,0 0.5517,0 2.5747,0 4.6897,-2.1149 4.6897,-4.6896 0,-0.092 0,-0.2759 0,-0.3679 z" style="font-style:normal;font-variant:normal;font-weight:normal;font-stretch:normal;font-size:91.95410919px;font-family:'Varela Round';-inkscape-font-specification:'Varela Round';letter-spacing:0px;vector-effect:none;fill:#3583f6;fill-opacity:1;stroke:none;stroke-width:2.09336233;stroke-linecap:butt;stroke-linejoin:miter;stroke-miterlimit:4;stroke-dasharray:none;stroke-dashoffset:0;stroke-opacity:1;marker:none" id="path2490"/>
                <path d="m -5897.5446,4679.3782 c -14.2529,0 -23.5403,9.8391 -23.5403,24.3678 0,14.5288 9.2874,24.3679 23.5403,24.3679 14.1609,0 23.5402,-9.8391 23.5402,-24.3679 0,-14.5287 -9.3793,-24.3678 -23.5402,-24.3678 z m 0,41.1035 c -7.0805,0 -15.1725,-4.5977 -15.1725,-16.8276 0,-12.138 8.092,-16.6437 15.1725,-16.6437 6.9885,0 15.1724,4.5057 15.1724,16.6437 0,12.2299 -8.1839,16.8276 -15.1724,16.8276 z" style="font-style:normal;font-variant:normal;font-weight:normal;font-stretch:normal;font-size:91.95410919px;font-family:'Varela Round';-inkscape-font-specification:'Varela Round';letter-spacing:0px;vector-effect:none;fill:#3583f6;fill-opacity:1;stroke:none;stroke-width:2.09336233;stroke-linecap:butt;stroke-linejoin:miter;stroke-miterlimit:4;stroke-dasharray:none;stroke-dashoffset:0;stroke-opacity:1;marker:none" id="path2492"/>
                <path d="m -5836.9081,4679.3782 c -8.1839,0 -13.2414,4.2299 -17.1035,8.4598 v -3.7701 c 0,-2.3908 -1.931,-4.2299 -4.2299,-4.2299 -2.2988,0 -4.1379,1.8391 -4.1379,4.2299 v 39.4483 c 0,2.2988 1.8391,4.1379 4.1379,4.1379 2.2989,0 4.2299,-1.8391 4.2299,-4.1379 v -27.5863 c 3.6782,-4.5977 8.4598,-8.8276 15.0805,-8.8276 7.1724,0 10.115,4.2299 10.115,11.2184 v 25.1955 c 0,2.2988 1.839,4.1379 4.1379,4.1379 2.2988,0 4.2299,-1.8391 4.2299,-4.1379 v -26.115 c 0,-9.8391 -5.977,-18.023 -16.4598,-18.023 z" style="font-style:normal;font-variant:normal;font-weight:normal;font-stretch:normal;font-size:91.95410919px;font-family:'Varela Round';-inkscape-font-specification:'Varela Round';letter-spacing:0px;vector-effect:none;fill:#3583f6;fill-opacity:1;stroke:none;stroke-width:2.09336233;stroke-linecap:butt;stroke-linejoin:miter;stroke-miterlimit:4;stroke-dasharray:none;stroke-dashoffset:0;stroke-opacity:1;marker:none" id="path2494"/>
            </g>
        </g>
    </g>
</svg>